# xmcd
#
# Track frame offsets: 
#        150
#        17687
#        43400
#        58666
#        68472
#        80892
#        94573
#        106504
#        116037
#        131116
#        154821
#        163444
#        179231
#        191247
#        207591
#        249766
#        264994
#        283594
#        296143
#        312787
#
# Disc length: 4324 seconds
#
# Revision: 2
# Processed by: cddbd v1.5.2PL0 Copyright (c) Steve Scherf et al.
# Submitted via: ExactAudioCopy v0.99pb5
#
DISCID=3010e214
DTITLE=Various Artist - 100 Oldie Hits CD2
DYEAR=2008
DGENRE=Oldies
TTITLE0=Demis Roussos - Goodbye My Love,Goodbye
TTITLE1=10CC - I'm Not In Love
TTITLE2=Hot Chocolate - Emma
TTITLE3=The Tams - Hey Girl Don't Bother Me
TTITLE4=Johnny Cash - I Walk The Line
TTITLE5=The Supremes - You Can't Hurry Love
TTITLE6=The Fantastics - Something Old, Something New
TTITLE7=The Drifters - There Goes My Baby
TTITLE8=Billy Ocean - Emotions In Motion
TTITLE9=Jesse Green - Nice And Slow
TTITLE10=Gerry and The Pacemakers - How Do You Do It
TTITLE11=Doctor and The Medics - Spirit In The Sky
TTITLE12=The Troggs - Wild Thing
TTITLE13=The Animals - We Gotta Get Out Of This Place
TTITLE14=Chuck Berry - My Ding-A-Ling (Live)
TTITLE15=Canned Heat - On The Road Again
TTITLE16=Mud - The Cat Crept In
TTITLE17=Blackfoot Sue - Sing, Don't Speak
TTITLE18=Paper Lace - Black Eyed Boys
TTITLE19=Bucks Fizz - Making Your Mind Up
EXTD=
EXTT0=
EXTT1=
EXTT2=
EXTT3=
EXTT4=
EXTT5=
EXTT6=
EXTT7=
EXTT8=
EXTT9=
EXTT10=
EXTT11=
EXTT12=
EXTT13=
EXTT14=
EXTT15=
EXTT16=
EXTT17=
EXTT18=
EXTT19=
PLAYORDER=
